<svg xmlns="http://www.w3.org/2000/svg" width="65.582" height="21.554" viewBox="0 0 65.582 21.554">
  <g id="_5e83e8ff" data-name="#5e83e8ff" transform="translate(-35.542 -44.552)">
    <path id="Path_1" data-name="Path 1" d="M35.551,44.577c.961-.031,1.923-.019,2.884-.007,2.05,3.658,4.075,7.331,6.127,10.987-.478.829-.956,1.659-1.449,2.479-1.544-2.673-3.025-5.383-4.541-8.073a1.858,1.858,0,0,0-.275-.358c-.029,5.442,0,10.885-.014,16.327.032.244-.268.151-.41.176-.774-.01-1.548.014-2.322-.017Q35.532,55.333,35.551,44.577Z" transform="translate(0 -0.005)" fill="#5e83e8"/>
    <path id="Path_2" data-name="Path 2" d="M117.57,60c2.909-5.133,5.758-10.3,8.659-15.441.95-.006,1.9-.027,2.851.011.074,1.87-.016,3.743.027,5.613q0,5.653-.01,11.3c0,1.529.032,3.059-.013,4.587-.914.041-1.83.035-2.744,0-.024-5.5.009-11-.016-16.495a3.6,3.6,0,0,0-.242.33q-3.452,6.149-6.905,12.3c-.5.013-1.01.009-1.514.008A7.522,7.522,0,0,1,117,61.036,9.586,9.586,0,0,1,117.57,60Z" transform="translate(-72.164 0)" fill="#5e83e8"/>
    <path id="Path_3" data-name="Path 3" d="M267.653,44.578c2.6-.048,5.194,0,7.792-.022a10.667,10.667,0,0,1,5.539,1.587,8.681,8.681,0,0,1,2.642,2.493,12.7,12.7,0,0,1,1.782,8.646,10.769,10.769,0,0,1-1.975,5.014,9.535,9.535,0,0,1-5.043,3.377,14.671,14.671,0,0,1-3.868.429c-2.289-.013-4.579.023-6.867-.018-.025-5.259,0-10.517-.013-15.776.027-.136-.068-.43.157-.424.863-.025,1.726-.01,2.589,0,.025,4.21,0,8.42.011,12.63a7.172,7.172,0,0,0,.032,1.14c1.317.095,2.652.013,3.975.04a8.814,8.814,0,0,0,5.158-1.273,7.575,7.575,0,0,0,2.7-3.816,10.893,10.893,0,0,0-.27-7.336,6.789,6.789,0,0,0-3.712-3.684,9.453,9.453,0,0,0-3.643-.615h-5.928a6.855,6.855,0,0,1-1.071-.035C267.655,46.148,267.634,45.363,267.653,44.578Z" transform="translate(-205.616 -0.003)" fill="#5e83e8"/>
    <path id="Path_4" data-name="Path 4" d="M458.53,44.578c.907-.017,1.815-.014,2.722,0q.005,10.765,0,21.531-1.359.017-2.719,0Q458.532,55.342,458.53,44.578Z" transform="translate(-374.727 -0.013)" fill="#5e83e8"/>
    <path id="Path_5" data-name="Path 5" d="M513.187,44.583c.9-.007,1.807,0,2.712,0q.01,10.772,0,21.542c-.906,0-1.811.008-2.717,0-.009-3.264.01-6.53-.009-9.794-3.144-.043-6.29,0-9.436-.021.006-.807,0-1.613.008-2.419,3.147-.017,6.3.037,9.443-.027C513.177,50.767,513.184,47.675,513.187,44.583Z" transform="translate(-414.778 -0.024)" fill="#5e83e8"/>
  </g>
</svg>
